<svg width="66" height="49" viewBox="0 0 66 49" fill="none" xmlns="http://www.w3.org/2000/svg">
<path fill-rule="evenodd" clip-rule="evenodd" d="M65.5369 2.04136C65.7491 1.87155 65.8717 1.62085 65.8717 1.3566C65.8717 0.863019 65.4523 0.462891 64.935 0.462891H2.31223C1.50917 0.462891 0.858154 1.08404 0.858154 1.85027C0.858154 2.26272 1.05049 2.65379 1.38297 2.91737L31.9115 27.1195C32.5768 27.6469 33.5422 27.6448 34.2049 27.1145L65.5369 2.04136ZM3.79105 10.0058C2.62511 9.08144 0.858154 9.87257 0.858154 11.3189V46.5597C0.858154 47.5026 1.65928 48.2669 2.64752 48.2669H64.0823C65.0705 48.2669 65.8717 47.5026 65.8717 46.5597V10.633C65.8717 9.18295 64.0969 8.39307 62.9324 9.32488L34.4082 32.1511L34.2174 32.3037C33.5547 32.8341 32.5893 32.8362 31.9241 32.3088L31.7326 32.157L3.79105 10.0058Z" fill="#252525"/>
</svg>
