<svg width="76" height="75" viewBox="0 0 76 75" fill="none" xmlns="http://www.w3.org/2000/svg">
<path d="M24.0055 27.4427C28.6872 40.2144 33.5339 45.3101 45.864 50.7377L40.5205 58.2423C26.3617 51.4636 19.3095 40.0371 15.9881 31.12L24.0055 27.4427Z" fill="#252525"/>
<path d="M65.9339 50.3089C66.2453 47.963 64.2845 45.9279 61.7845 45.8042C57.8503 45.6096 55.0695 45.0195 51.6727 43.8985C49.8067 43.2827 47.7449 43.957 46.3081 45.2389C44.3716 46.9668 42.0298 48.1882 40.0264 49.1427C37.2495 50.4656 36.7203 56.0511 39.3617 57.6019C44.7901 60.7891 55.169 63.7155 62.8034 60.8416C64.0025 60.3902 64.742 59.2897 64.9025 58.08L65.9339 50.3089Z" fill="#252525"/>
<path d="M27.933 9.81107C30.4364 9.80128 32.3399 11.8844 32.1692 14.2431C31.9007 17.955 32.1866 20.6331 32.9564 23.9527C33.3793 25.7762 32.4226 27.6281 30.9023 28.821C28.8531 30.4288 27.2876 32.4775 26.0433 34.2411C24.3187 36.6854 18.3837 36.5098 17.0712 33.8469C14.3737 28.3742 12.5457 18.2915 16.4847 11.4795C17.1035 10.4095 18.3493 9.84855 19.6402 9.8435L27.933 9.81107Z" fill="#252525"/>
</svg>
